<?xml version="1.0" encoding="UTF-8" standalone="no"?>
<svg width="57px" height="50px" viewBox="0 0 57 50" version="1.1" xmlns="http://www.w3.org/2000/svg" xmlns:xlink="http://www.w3.org/1999/xlink">
    <!-- Generator: Sketch 3.7.2 (28276) - http://www.bohemiancoding.com/sketch -->
    <title>sofa</title>
    <desc>Created with Sketch.</desc>
    <defs></defs>
    <g id="-" stroke="none" stroke-width="1" fill="none" fill-rule="evenodd">
        <g id="home-baru-2-ios" transform="translate(-633.000000, -775.000000)" fill="#9F9F9F">
            <g id="sofa" transform="translate(633.000000, 775.000000)">
                <g id="Capa_1">
                    <g id="Group">
                        <path d="M9.47151266,26.2718527 L17.1569605,26.2718527 C15.6376888,23.2954869 13.0492252,19.4690024 8.65711652,15.4053444 C7.80055138,14.6128266 6.64999114,14.1583135 5.50014361,14.1583135 C4.29125949,14.1583135 3.10660769,14.6268409 1.97897312,15.5510689 C-1.53720835,18.4326603 0.860603858,21.9928741 1.67927629,23.0155582 C2.7610595,24.3668646 3.89332671,26.2706651 4.89112829,28.5359857 C5.94749131,27.1606888 7.60728672,26.2718527 9.47151266,26.2718527 L9.47151266,26.2718527 Z" id="Shape"></path>
                        <path d="M54.82005,15.5510689 C53.6924154,14.6269596 52.5077636,14.1583135 51.2988795,14.1583135 C50.1491508,14.1583135 48.9984717,14.6128266 48.1419066,15.4053444 C43.7496791,19.4690024 41.1613343,23.2954869 39.6421814,26.2718527 L47.3276292,26.2718527 C49.1912613,26.2718527 50.8507003,27.1602138 51.9069445,28.5347981 C52.9049837,26.269715 54.037726,24.3668646 55.119628,23.0154394 C55.9384193,21.9928741 58.3362315,18.4325416 54.82005,15.5510689 L54.82005,15.5510689 Z" id="Shape"></path>
                        <path d="M50.7256188,39.6847981 L50.7256188,32.0446556 C50.7256188,30.1713777 49.2013581,28.6472684 47.327748,28.6472684 L9.47151266,28.6472684 C7.59790263,28.6472684 6.07364194,30.1713777 6.07364194,32.0446556 L6.07364194,39.6847981 C6.07364194,41.558076 7.59790263,43.0820665 9.47151266,43.0820665 L47.3276292,43.0820665 C49.2013581,43.0820665 50.7256188,41.558076 50.7256188,39.6847981 L50.7256188,39.6847981 Z" id="Shape"></path>
                        <polygon id="Shape" points="43.0602457 45.4573634 43.6207964 49.8944181 46.4796167 49.8944181 47.0401674 45.4573634"></polygon>
                        <polygon id="Shape" points="9.75897454 45.4573634 10.3195252 49.8944181 13.1784643 49.8944181 13.739015 45.4573634"></polygon>
                        <path d="M36.9896922,26.2718527 C38.6178906,22.7406176 41.4830065,18.3300475 46.5283189,13.6618765 C47.2399653,13.0034442 48.0657648,12.5072447 48.9546397,12.1900238 C45.7571608,5.06864608 37.7501596,0.00629453682 28.399571,0.00629453682 C19.0489823,0.00629453682 11.0405556,5.06805226 7.84295795,12.1895487 C8.73230799,12.5067696 9.55858272,13.0030879 10.2707042,13.6618765 C15.3160166,18.3299287 18.1811325,22.74038 19.8093309,26.2718527 L36.9896922,26.2718527 L36.9896922,26.2718527 Z" id="Shape"></path>
                    </g>
                </g>
            </g>
        </g>
    </g>
</svg>