<?xml version="1.0" encoding="UTF-8" standalone="no"?>
<svg width="43px" height="48px" viewBox="0 0 43 48" version="1.1" xmlns="http://www.w3.org/2000/svg" xmlns:xlink="http://www.w3.org/1999/xlink">
    <!-- Generator: Sketch 3.7.2 (28276) - http://www.bohemiancoding.com/sketch -->
    <title>icon-shopping-bag-white</title>
    <desc>Created with Sketch.</desc>
    <defs></defs>
    <g id="-" stroke="none" stroke-width="1" fill="none" fill-rule="evenodd">
        <g id="home-baru-2-ios" transform="translate(-704.000000, -24.000000)" fill="#FFFFFF">
            <g id="icon-shopping-bag-white" transform="translate(704.000000, 24.000000)">
                <g id="Capa_1">
                    <path d="M42.3950108,46.5099355 L39.6500645,12.5412473 C39.595871,11.8711398 39.0362151,11.3548387 38.363871,11.3548387 L30.9947527,11.3548387 L30.9947527,9.72129032 C30.9947527,4.36094624 26.6912688,0 21.3307527,0 L21.1604301,0 C15.800086,0 11.3818495,4.36094624 11.3818495,9.72129032 L11.3818495,11.3548387 L4.12731183,11.3548387 C3.45496774,11.3548387 2.89531183,11.8711398 2.84111828,12.5412473 L0.0884301075,46.6057634 C0.0593548387,46.9649892 0.181849462,47.3197419 0.426150538,47.5845161 C0.670451613,47.8492903 1.01453763,48 1.37462366,48 L41.1165591,48 L41.12,48 C41.8327742,48 42.4103226,47.4224516 42.4103226,46.7096774 C42.4103226,46.6417204 42.4051613,46.5749677 42.3950108,46.5099355 L42.3950108,46.5099355 Z M13.9624946,9.72129032 C13.9624946,5.78391398 17.2230538,2.58064516 21.1604301,2.58064516 L21.3307527,2.58064516 C25.268129,2.58064516 28.4141075,5.78391398 28.4141075,9.72129032 L28.4141075,11.3548387 L13.9624946,11.3548387 L13.9624946,9.72129032 L13.9624946,9.72129032 Z" id="Shape"></path>
                </g>
            </g>
        </g>
    </g>
</svg>