<?xml version="1.0" encoding="UTF-8" standalone="no"?>
<svg width="50px" height="60px" viewBox="0 0 50 60" version="1.1" xmlns="http://www.w3.org/2000/svg" xmlns:xlink="http://www.w3.org/1999/xlink">
    <!-- Generator: Sketch 3.7.2 (28276) - http://www.bohemiancoding.com/sketch -->
    <title>social (4)</title>
    <desc>Created with Sketch.</desc>
    <defs></defs>
    <g id="-" stroke="none" stroke-width="1" fill="none" fill-rule="evenodd">
        <g id="home-baru-2-ios" transform="translate(-638.000000, -389.000000)" fill="#9F9F9F">
            <g id="social-(4)" transform="translate(638.000000, 389.000000)">
                <g id="Capa_1">
                    <path d="M49.1662852,54.6602727 C49.0861185,54.1898182 49.0028,53.7199091 48.9164667,53.2493182 C47.926237,47.8779545 46.3075556,39.3379091 40.1291037,34.7206364 C40.5848889,31.7132727 40.818263,27.0383182 40.818263,20.0845909 C40.818263,8.98390909 33.5842148,0 24.6666667,0 C18.5856481,0 14.7188741,4.28795455 14.7188741,4.28795455 C10.952137,7.96990909 8.51507037,13.6688182 8.51507037,20.1065455 C8.51507037,27.0403636 8.75885926,31.7168182 9.20285926,34.713 C2.99645185,39.2844545 1.40778148,47.8936364 0.41672963,53.2682727 C0.33067037,53.7376364 0.247351852,54.2078182 0.167185185,54.6774545 C-0.25667037,57.1595455 1.4218963,59.5130455 3.91583333,59.9348182 C4.17565556,59.9787273 4.43342222,60 4.68844815,60 L20.7195889,59.9959091 L20.72,59.9927727 L44.6446111,59.9821364 C44.899363,59.9821364 45.1575407,59.9612727 45.4169519,59.9168182 C47.911163,59.4954545 49.5898667,57.1423636 49.1662852,54.6602727 L49.1662852,54.6602727 Z M24.6713259,44.2369091 L16.1542,39.9188182 L20.572,32.9882727 C21.7697037,33.5961818 23.3476852,33.9409091 24.6666667,33.9409091 C25.9909926,33.9409091 27.5415667,33.5893636 28.7435185,32.9764091 L33.1502185,39.9205909 L24.6713259,44.2369091 L24.6713259,44.2369091 Z M24.6666667,30.9409091 C16.5598296,30.9409091 13.0694963,20.0256818 13.7659185,16.6174091 C22.6781222,8.90427273 30.5685778,9.43704545 30.5685778,9.43704545 C30.5685778,9.43704545 31.9832111,13.8087273 35.6215444,19.0834091 C34.9821296,24.2824091 29.688663,30.9409091 24.6666667,30.9409091 L24.6666667,30.9409091 Z" id="Shape"></path>
                </g>
            </g>
        </g>
    </g>
</svg>