<?xml version="1.0" encoding="UTF-8" standalone="no"?>
<svg width="36px" height="60px" viewBox="0 0 36 60" version="1.1" xmlns="http://www.w3.org/2000/svg" xmlns:xlink="http://www.w3.org/1999/xlink">
    <!-- Generator: Sketch 3.7.2 (28276) - http://www.bohemiancoding.com/sketch -->
    <title>technology (1)</title>
    <desc>Created with Sketch.</desc>
    <defs></defs>
    <g id="-" stroke="none" stroke-width="1" fill="none" fill-rule="evenodd">
        <g id="home-baru-2-ios" transform="translate(-642.000000, -647.000000)" fill="#9F9F9F">
            <g id="technology-(1)" transform="translate(642.000000, 647.000000)">
                <g id="Capa_1">
                    <path d="M31.0284116,0 L4.21634366,0 C1.98257742,0 0.154325674,1.82228571 0.154325674,4.05257143 L0.154325674,55.9457143 C0.154325674,58.176 1.98257742,60 4.21634366,60 L31.0284116,60 C33.2621778,60 35.0904296,58.1794286 35.0904296,55.9474286 L35.0904296,4.05257143 C35.0904296,1.82228571 33.2621778,0 31.0284116,0 L31.0284116,0 Z M13.3335465,2.92114286 L21.9112088,2.92114286 C22.1826973,2.92114286 22.4026374,3.14057143 22.4026374,3.41314286 C22.4026374,3.684 22.1826973,3.90342857 21.9112088,3.90342857 L13.3335465,3.90342857 C13.0620579,3.90342857 12.8421179,3.684 12.8421179,3.41314286 C12.8421179,3.14057143 13.0620579,2.92114286 13.3335465,2.92114286 L13.3335465,2.92114286 Z M17.6223776,57.9737143 C16.5003397,57.9737143 15.5913686,57.0668571 15.5913686,55.9457143 C15.5913686,54.8245714 16.5003397,53.9194286 17.6223776,53.9194286 C18.7444156,53.9194286 19.6533866,54.8245714 19.6533866,55.9457143 C19.6533866,57.0668571 18.7444156,57.9737143 17.6223776,57.9737143 L17.6223776,57.9737143 Z M32.2638561,52.5 L2.9808991,52.5 L2.9808991,6.42685714 L32.2638561,6.42685714 L32.2638561,52.5 L32.2638561,52.5 Z" id="Shape"></path>
                </g>
            </g>
        </g>
    </g>
</svg>