<?xml version="1.0" encoding="UTF-8" standalone="no"?>
<svg width="50px" height="50px" viewBox="0 0 50 50" version="1.1" xmlns="http://www.w3.org/2000/svg" xmlns:xlink="http://www.w3.org/1999/xlink">
    <!-- Generator: Sketch 3.7.2 (28276) - http://www.bohemiancoding.com/sketch -->
    <title>clock-circular-outline</title>
    <desc>Created with Sketch.</desc>
    <defs></defs>
    <g id="-" stroke="none" stroke-width="1" fill="none" fill-rule="evenodd">
        <g id="home-baru-2-ios" transform="translate(-637.000000, -915.000000)" fill="#9F9F9F">
            <g id="clock-circular-outline" transform="translate(637.000000, 915.000000)">
                <g id="Capa_1">
                    <g id="Group">
                        <path d="M24.7857143,0 C11.1188776,0 0,11.1188776 0,24.7857143 C0,38.452551 11.1188776,49.5714286 24.7857143,49.5714286 C38.452551,49.5714286 49.5714286,38.452551 49.5714286,24.7857143 C49.5714286,11.1188776 38.452551,0 24.7857143,0 L24.7857143,0 Z M24.7857143,44.297449 C14.0270408,44.297449 5.27346939,35.544898 5.27346939,24.7857143 C5.27346939,14.0265306 14.0270408,5.27397959 24.7857143,5.27397959 C35.5443878,5.27397959 44.2979592,14.0265306 44.2979592,24.7857143 C44.2979592,35.544898 35.5443878,44.297449 24.7857143,44.297449 L24.7857143,44.297449 Z" id="Shape"></path>
                        <path d="M37.7030612,24.0204082 L26.5642857,24.0204082 L26.5642857,10.627551 C26.5642857,9.5005102 25.6505102,8.58673469 24.5234694,8.58673469 C23.3964286,8.58673469 22.4826531,9.5005102 22.4826531,10.627551 L22.4826531,26.0612245 C22.4826531,27.1882653 23.3964286,28.1020408 24.5234694,28.1020408 L37.7030612,28.1020408 C38.830102,28.1020408 39.7438776,27.1882653 39.7438776,26.0612245 C39.7438776,24.9341837 38.830102,24.0204082 37.7030612,24.0204082 L37.7030612,24.0204082 Z" id="Shape"></path>
                    </g>
                </g>
            </g>
        </g>
    </g>
</svg>