<?xml version="1.0" encoding="UTF-8" standalone="no"?>
<svg width="46px" height="60px" viewBox="0 0 46 60" version="1.1" xmlns="http://www.w3.org/2000/svg" xmlns:xlink="http://www.w3.org/1999/xlink">
    <!-- Generator: Sketch 3.7.2 (28276) - http://www.bohemiancoding.com/sketch -->
    <title>people</title>
    <desc>Created with Sketch.</desc>
    <defs></defs>
    <g id="-" stroke="none" stroke-width="1" fill="none" fill-rule="evenodd">
        <g id="home-baru-2-ios" transform="translate(-639.000000, -518.000000)" fill="#9F9F9F">
            <g id="people" transform="translate(639.000000, 518.000000)">
                <g id="Capa_1">
                    <g id="Group">
                        <path d="M20.3148946,29.722963 C15.1914661,28.6754321 11.3311489,24.1490123 11.3311489,18.7196296 C11.3311489,14.6082716 13.568738,11.052963 16.8686068,9.09506173 C17.919633,11.3562963 20.0660812,13.6667901 23.0212965,15.3725926 C26.8959588,17.6044444 31.004842,18.1546914 33.6711766,17.0890123 C33.7519296,17.6265432 33.8328063,18.1604938 33.8328063,18.7196296 C33.8328063,24.1490123 29.979167,28.6755556 24.8523996,29.722963 C32.0524057,28.6241975 37.5825673,22.4711111 37.5825673,14.9758025 C37.582691,6.70555556 30.8664612,0 22.5819158,0 C14.301204,0 7.58114063,6.70555556 7.58114063,14.9758025 C7.58114063,22.4711111 13.1183511,28.6240741 20.3148946,29.722963 L20.3148946,29.722963 Z" id="Shape"></path>
                        <path d="M33.83293,33.6950617 L31.9578022,33.6950617 C31.9578022,38.8651852 27.7602514,43.0551852 22.5820395,43.0551852 C17.4035802,43.0551852 13.2067714,38.8651852 13.2067714,33.6950617 L11.3312726,33.6950617 C5.11996582,33.6950617 0.0805057182,38.722963 0.0805057182,44.9266667 L0.0805057182,56.1587654 C0.0805057182,58.2283951 1.75801734,59.902716 3.83088501,59.902716 L41.3331939,59.902716 C43.4056906,59.902716 45.0834495,58.2283951 45.0834495,56.1587654 L45.0834495,44.9266667 C45.0834495,38.722963 40.051162,33.6950617 33.83293,33.6950617 L33.83293,33.6950617 Z" id="Shape"></path>
                    </g>
                </g>
            </g>
        </g>
    </g>
</svg>