<?xml version="1.0" encoding="UTF-8" standalone="no"?>
<svg width="40px" height="40px" viewBox="0 0 40 40" version="1.1" xmlns="http://www.w3.org/2000/svg" xmlns:xlink="http://www.w3.org/1999/xlink">
    <!-- Generator: Sketch 3.7.2 (28276) - http://www.bohemiancoding.com/sketch -->
    <title>circle (4)</title>
    <desc>Created with Sketch.</desc>
    <defs></defs>
    <g id="-" stroke="none" stroke-width="1" fill="none" fill-rule="evenodd">
        <g id="sort" transform="translate(-61.000000, -287.000000)" fill="#222222">
            <g id="circle-(4)" transform="translate(61.000000, 287.000000)">
                <g id="Capa_1">
                    <g id="Group">
                        <path d="M19.9929273,39.9858546 C8.98844794,39.9858546 0,30.9974067 0,19.9929273 C0,8.98844794 8.98844794,0 19.9929273,0 C30.9974067,0 39.9858546,8.98844794 39.9858546,19.9929273 C39.9858546,30.9974067 31.0814145,39.9858546 19.9929273,39.9858546 L19.9929273,39.9858546 Z M19.9929273,2.43614931 C10.3324951,2.43614931 2.52015717,10.2484872 2.52015717,19.9089194 C2.52015717,29.5693517 10.3324951,37.3817682 19.9930059,37.3817682 C29.6535167,37.3817682 37.465776,29.5694303 37.465776,19.9089194 C37.5497053,10.2484872 29.6533595,2.43614931 19.9929273,2.43614931 L19.9929273,2.43614931 Z" id="Shape"></path>
                        <path d="M18.144833,25.8732417 C17.8088016,25.8732417 17.4727701,25.7052259 17.2208251,25.5372102 L13.1045972,21.4209823 C12.6005501,20.9169352 12.6005501,20.160943 13.1045972,19.6568959 C13.6086444,19.1528487 14.3646365,19.1528487 14.8686837,19.6568959 L18.0608251,22.8490373 L25.5372102,15.540668 C26.0412574,15.0366208 26.7972495,15.0366208 27.3012967,15.540668 C27.8053438,16.0447151 27.8053438,16.8007073 27.3012967,17.3047544 L19.0689194,25.5372102 C18.8168959,25.7891552 18.4808644,25.8731631 18.144833,25.8732417 L18.144833,25.8732417 Z" id="Shape"></path>
                    </g>
                </g>
            </g>
        </g>
    </g>
</svg>