<?xml version="1.0" encoding="UTF-8" standalone="no"?>
<svg width="48px" height="48px" viewBox="0 0 48 48" version="1.1" xmlns="http://www.w3.org/2000/svg" xmlns:xlink="http://www.w3.org/1999/xlink">
    <!-- Generator: Sketch 3.7.2 (28276) - http://www.bohemiancoding.com/sketch -->
    <title>icon-favorite-white</title>
    <desc>Created with Sketch.</desc>
    <defs></defs>
    <g id="-" stroke="none" stroke-width="1" fill="none" fill-rule="evenodd">
        <g id="home-baru-2-ios" transform="translate(-605.000000, -26.000000)" fill="#FFFFFF">
            <g id="icon-favorite-white" transform="translate(605.000000, 26.000000)">
                <g id="Capa_1">
                    <g id="Icons_18_">
                        <path d="M24,48 C37.254834,48 48,37.254834 48,24 C48,10.745166 37.254834,0 24,0 C10.745166,0 0,10.745166 0,24 C0,37.254834 10.745166,48 24,48 Z M38.7735768,21.4994272 C38.7735768,17.0685559 35.1880544,13.4767561 30.7651497,13.4767561 C27.8770747,13.4767561 25.3548766,15.0133253 23.9458379,17.3096774 C22.5369797,15.0133253 20.0136983,13.4767561 17.1256835,13.4767561 C12.7027788,13.4767561 9.11827957,17.0685559 9.11827957,21.4994272 C9.11827957,23.9117878 10.1853356,26.070003 11.8670818,27.5397046 L23.2150469,38.9085921 C23.4088491,39.1027434 23.6716859,39.2118179 23.9458379,39.2118179 C24.2199899,39.2118179 24.4828267,39.1027434 24.6766289,38.9085921 L36.024594,27.5397046 C37.7064004,26.070003 38.7735768,23.9117878 38.7735768,21.4994272 Z" id="Combined-Shape"></path>
                    </g>
                </g>
            </g>
        </g>
    </g>
</svg>