<?xml version="1.0" encoding="UTF-8" standalone="no"?>
<svg width="48px" height="48px" viewBox="0 0 48 48" version="1.1" xmlns="http://www.w3.org/2000/svg" xmlns:xlink="http://www.w3.org/1999/xlink">
    <!-- Generator: Sketch 3.7.2 (28276) - http://www.bohemiancoding.com/sketch -->
    <title>search xhdpi</title>
    <desc>Created with Sketch.</desc>
    <defs></defs>
    <g id="-" stroke="none" stroke-width="1" fill="none" fill-rule="evenodd">
        <g id="home-baru-2-ios" transform="translate(-515.000000, -24.000000)" fill="#FFFFFF">
            <g id="search-xhdpi" transform="translate(515.000000, 24.000000)">
                <path d="M19.5,38.895 C8.8065,38.895 0.105,30.1935 0.105,19.5 C0.105,8.8065 8.8065,0.105 19.5,0.105 C30.1935,0.105 38.895,8.8065 38.895,19.5 C38.895,30.1935 30.1935,38.895 19.5,38.895 L19.5,38.895 Z M19.5,2.895 C10.344,2.895 2.895,10.344 2.895,19.5 C2.895,28.656 10.344,36.105 19.5,36.105 C28.656,36.105 36.105,28.656 36.105,19.5 C36.105,10.344 28.656,2.895 19.5,2.895 L19.5,2.895 Z" id="Fill-1"></path>
                <polyline id="Fill-2" points="45.4395 47.5605 31.9395 34.0605 34.0605 31.9395 47.5605 45.4395 45.4395 47.5605"></polyline>
            </g>
        </g>
    </g>
</svg>