<?xml version="1.0" encoding="UTF-8" standalone="no"?>
<svg width="31px" height="28px" viewBox="0 0 31 28" version="1.1" xmlns="http://www.w3.org/2000/svg" xmlns:xlink="http://www.w3.org/1999/xlink">
    <!-- Generator: Sketch 3.7.2 (28276) - http://www.bohemiancoding.com/sketch -->
    <title>filter xxxhdpi</title>
    <desc>Created with Sketch.</desc>
    <defs></defs>
    <g id="-" stroke="none" stroke-width="1" fill="none" fill-rule="evenodd">
        <g id="produk-list" transform="translate(-461.000000, -141.000000)" fill="#4A4A4A">
            <g id="Group-3" transform="translate(384.000000, 103.000000)">
                <path d="M107.532739,38.5280008 C107.379762,38.205615 107.052307,38 106.693453,38 L77.9280107,38 C77.5691562,38 77.2415467,38.205615 77.0887241,38.5280008 C76.9352829,38.8505401 76.9836973,39.2310812 77.2120031,39.5062063 L88.2696735,52.8108748 L88.2696735,65.079336 C88.2696735,65.3975789 88.4359531,65.6935723 88.7083423,65.8614401 C88.8576072,65.9531996 89.0274444,66 89.1977456,66 C89.3386579,66 89.4800343,65.9682371 89.6098097,65.9040975 L95.8229434,62.8494879 C96.1383333,62.694356 96.3383328,62.3753459 96.3383328,62.0253402 L96.3510165,52.8114886 L107.40946,39.5062063 C107.637766,39.2310812 107.68618,38.8499263 107.532739,38.5280008 L107.532739,38.5280008 Z M94.7070913,51.8945073 C94.57051,52.0593061 94.4954909,52.2655348 94.4954909,52.478822 L94.4834259,61.4529941 L90.1258178,63.5952257 L90.1258178,52.4800495 C90.1258178,52.2667624 90.0509533,52.0593061 89.9137533,51.8945073 L79.8959877,39.8413279 L104.725476,39.8413279 L94.7070913,51.8945073 Z" id="filter-xxxhdpi"></path>
            </g>
        </g>
    </g>
</svg>