<?xml version="1.0" encoding="UTF-8" standalone="no"?>
<svg width="40px" height="40px" viewBox="0 0 40 40" version="1.1" xmlns="http://www.w3.org/2000/svg" xmlns:xlink="http://www.w3.org/1999/xlink">
    <!-- Generator: Sketch 3.7.2 (28276) - http://www.bohemiancoding.com/sketch -->
    <title>circle (4) copy 3</title>
    <desc>Created with Sketch.</desc>
    <defs></defs>
    <g id="-" stroke="none" stroke-width="1" fill="none" fill-rule="evenodd">
        <g id="sort" transform="translate(-61.000000, -426.000000)" fill="#C9C9C9">
            <g id="circle-(4)-copy-3" transform="translate(61.000000, 426.000000)">
                <g id="Capa_1">
                    <g id="Group">
                        <path d="M19.9929273,39.9858546 C8.98844794,39.9858546 0,30.9974067 0,19.9929273 C0,8.98844794 8.98844794,0 19.9929273,0 C30.9974067,0 39.9858546,8.98844794 39.9858546,19.9929273 C39.9858546,30.9974067 31.0814145,39.9858546 19.9929273,39.9858546 L19.9929273,39.9858546 Z M19.9929273,2.43614931 C10.3324951,2.43614931 2.52015717,10.2484872 2.52015717,19.9089194 C2.52015717,29.5693517 10.3324951,37.3817682 19.9930059,37.3817682 C29.6535167,37.3817682 37.465776,29.5694303 37.465776,19.9089194 C37.5497053,10.2484872 29.6533595,2.43614931 19.9929273,2.43614931 L19.9929273,2.43614931 Z" id="Shape"></path>
                    </g>
                </g>
            </g>
        </g>
    </g>
</svg>